# xmcd
#
# Track frame offsets:
#	150
#	14315
#	42112
#	59336
#	78391
#	103590
#	122581
#	143185
#	167526
#	189679
#	207616
#	223829
#	243230
#	260813
#	279330
#	295620
#
# Disc length: 4186 seconds
#
# Revision: 0
# Processed by: cddbd v1.4PL0 Copyright (c) Steve Scherf et al.
# Submitted via: dBpowerAMP V4.0
#
DISCID=ed105810
DTITLE=Whisky Brothers Band - Seven Til Midnight ( Live )
DYEAR=1900
DGENRE=
TTITLE0=Sweet Home Chicago
TTITLE1=Ain't Gonna Do It
TTITLE2=I Am Ready
TTITLE3=Boom Boom Boom Boom
TTITLE4=Goin' Down
TTITLE5=Cadillac Assembly Line
TTITLE6=Can't Be Satisfied
TTITLE7=Can't Get Next To You
TTITLE8=Lie Know Better
TTITLE9=Crosscut Saw
TTITLE10=Let The Good Times Roll
TTITLE11=Hoochie Coochie
TTITLE12=How Long Blues
TTITLE13=I Ain't Drunk
TTITLE14=Kansas City
TTITLE15=Red House
EXTD=all cuts recorded live @ Hitch-n-Post Bar and Grille, Lapeer, Mi.\n2002
EXTT0=
EXTT1=
EXTT2=
EXTT3=
EXTT4=
EXTT5=
EXTT6=
EXTT7=
EXTT8=
EXTT9=
EXTT10=
EXTT11=
EXTT12=
EXTT13=
EXTT14=
EXTT15=
PLAYORDER=
